# xmcd
#
# Track frame offsets: 
#        150
#        13237
#        26853
#        41938
#        56784
#        68384
#        81000
#        94803
#        109786
#        124420
#        140269
#        154566
#        169180
#        181848
#        195818
#        210067
#        222516
#        234233
#        246051
#        260423
#        274887
#        291053
#        306820
#        320851
#        332814
#        346164
#
# Disc length: 4781 seconds
#
# Revision: 1
# Processed by: cddbd v1.5.2PL0 Copyright (c) Steve Scherf et al.
# Submitted via: ExactAudioCopyFreeDBPlugin 1.0
#
DISCID=7712ab1a
DTITLE=Various Artist - Really The Blues A Blues History - Vol 1 (189
DTITLE=3-1929) [Cd8]
DYEAR=2010
DGENRE=Blues
TTITLE0=Pink Anderson 1928 - Every Day Of The Week Blues
TTITLE1=Jimmy Blythe 1928 - Alley Rat
TTITLE2=Denson Quartet 1928 - I'm On My Journey Home
TTITLE3=William Moore 1928 - One Way Gal
TTITLE4=Cliff Edwards 1928 - Stack O'lee
TTITLE5=Gladys Bentley 1928 - Worried Blues
TTITLE6=Helen Morgan 1928 - Can't Help Lovin That Man
TTITLE7=Benny Goodman's Boys 1928 - Jungle Blues
TTITLE8=Bing Paul Whiteman 1928 - Old Man River
TTITLE9=RM Massey 1928 - Old Time Baptisme Pt 2
TTITLE10=Johny Dodds 1928 - Blue Piano Stomp
TTITLE11=Frenchy's String Band 1928 - Sunshine Special
TTITLE12=Frances Hereford 1928 - Midnight Mama
TTITLE13=Elder Richard Bryant 1928 - Lord Lord He Sure Is Good
TTITLE14=Sam Ku's West Harmony Boys 1928 - Wan Wang Blues
TTITLE15=Tampa Red Hokum Jug Band 1928 - Tight Like That
TTITLE16=Original Memphis 5 Signorelli 1928 - A Blues Serenade
TTITLE17=Shortbuckle Roarke 1928 - I Truly Understand You Love Another
TTITLE17=Man
TTITLE18=Teschmacher, Krupa 1928 - I Found A New Baby
TTITLE19=Bernice Edwards 1928 - Hard Hustling Blues
TTITLE20=Charlie Johnson's Paradise 1928 - The Boy In The Boat
TTITLE21=Rosa Mae Moore 1928 - School Girl Blues
TTITLE22=Boyd Senter And His Sentipedes 1928 - I Wih I Could Shimmy Li
TTITLE22=ke My Sister Kate
TTITLE23=Dr Humphrey Bate And His Possum Hunters 1928 - Ham Beats All 
TTITLE23=Meat
TTITLE24=Johnson Porkshop 1928 - In The Mornin'
TTITLE25=Tennessee Ramblers 1928 - The Preacher Got Drunk And Laid His
TTITLE25=Bible Down
EXTD=
EXTT0=
EXTT1=
EXTT2=
EXTT3=
EXTT4=
EXTT5=
EXTT6=
EXTT7=
EXTT8=
EXTT9=
EXTT10=
EXTT11=
EXTT12=
EXTT13=
EXTT14=
EXTT15=
EXTT16=
EXTT17=
EXTT18=
EXTT19=
EXTT20=
EXTT21=
EXTT22=
EXTT23=
EXTT24=
EXTT25=
PLAYORDER=
